<svg xmlns="http://www.w3.org/2000/svg" width="249.296" height="319.359" viewBox="0 0 249.296 319.359">
  <title>ghost</title>
  <g>
    <path d="M85.2,48.053a21.026,21.026,0,0,0-2.7,1.46,78.325,78.325,0,0,0-20.943,19.2C49.866,84.445,43.422,104.045,41.71,123.452a142.129,142.129,0,0,0,.335,26.51c.781,7.878,3.122,15.513,1.971,23.359-2.121,14.45-7.154,29.009-17.443,39.722-4.626,4.818-10.151,8.7-14.817,13.477-5.275,5.4-10.475,12.324-11.536,20-2.57,18.608,18.015,13.551,28.887,15.756,4.305.873,8.5,3.672,9.751,7.883.545,1.835.507,3.813,1.143,5.618a10.734,10.734,0,0,0,6.041,5.907c9.624,4.2,21.884-1.371,30.821,4.143,10.77,6.645,11.331,23.946,26.412,24.286,7.22.163,14.094-2.784,21.126-4.427,2.081-.487,4.322-.849,6.31-.064,2.6,1.026,4.075,3.7,5.841,5.864,6.526,8.008,18.732,9.72,28.359,5.973,14.264-5.552,26.191-22.369,31.682-36.117a174.656,174.656,0,0,0,11.372-50.252c2.116-25.336,3.3-50.817,2.068-76.232-1.145-23.682-3.517-49.589-12.676-71.693-8.785-21.2-25.785-38.573-48.886-42.893-10.08-1.885-16.128-10.272-20.436-19.2-3.03-6.283-6.58-14.461-12.941-17.966C108.671-.432,100.908-.254,93.6.323c-3.586.283-7.366.713-10.244,2.87s-4.317,6.644-2.047,9.434c3.8,4.669,11.737-.147,17.276,2.212,2.412,1.027,4.037,3.315,5.269,5.63,2.684,5.045,4.044,11.34,1.412,16.411C101.438,44.248,92.223,44.851,85.2,48.053Z" fill="#fff"/>
    <g>
      <path d="M148.893,107.108a20.409,20.409,0,0,1,1.7,9.895,9.847,9.847,0,0,1-8.587,8.7,8.877,8.877,0,0,1-9.073-3.808c-4.471-6.982-1.432-18.086,5.758-22.151,1.711-.967,3.54-.371,5.042.725A16.573,16.573,0,0,1,148.893,107.108Z" fill="#231f20"/>
      <ellipse cx="140.756" cy="117.725" rx="3.009" ry="3.287" fill="#fff"/>
    </g>
    <g>
      <path d="M106.832,107.513a20.4,20.4,0,0,1-.907,10,9.847,9.847,0,0,1-10.54,6.2,8.879,8.879,0,0,1-7.786-6.018c-2.519-7.9,3.279-17.844,11.273-19.919,1.9-.493,3.516.555,4.685,2A16.577,16.577,0,0,1,106.832,107.513Z" fill="#231f20"/>
      <path d="M93.326,114.9a3.021,3.021,0,1,0,3.755-2.4A3.157,3.157,0,0,0,93.326,114.9Z" fill="#fff"/>
    </g>
    <path d="M102.472,86.37a16.373,16.373,0,0,0-15.867-3.927,1.5,1.5,0,0,0,.8,2.893,13.266,13.266,0,0,1,12.949,3.156c1.4,1.325,3.528-.792,2.121-2.122Z" fill="#231f20"/>
    <path d="M139.252,90.875a28.986,28.986,0,0,1,14.753-4.091,1.5,1.5,0,0,0,0-3,32.138,32.138,0,0,0-16.267,4.5,1.5,1.5,0,0,0,1.514,2.59Z" fill="#231f20"/>
    <path d="M148.071,133.674c0,3.28,4.62,5.94,10.317,5.94s10.317-2.66,10.317-5.94-4.619-5.94-10.317-5.94S148.071,130.393,148.071,133.674Z" fill="#f08ca9"/>
    <path d="M64.285,128.984c0,3.281,4.619,5.94,10.317,5.94s10.317-2.659,10.317-5.94-4.619-5.94-10.317-5.94S64.285,125.7,64.285,128.984Z" fill="#f08ca9"/>
    <path d="M59.765,146.117a244.444,244.444,0,0,0-27.432-8.841c-3.824-.987-7.935-1.871-11.65-.529-8.666,3.131-16.615,17.237-18.949,25.467-.334,1.18-.575,2.561.161,3.541a3.8,3.8,0,0,0,2.016,1.176,17.436,17.436,0,0,0,16.508-3.74c1.975-1.807,3.926-4.255,6.6-4.145a7.143,7.143,0,0,1,2.768.86,36.492,36.492,0,0,1,17.1,17.46" fill="#fff"/>
    <path d="M131.838,172.48a35.712,35.712,0,0,0,1.934-14.786c-.391-5.987-1.642-13.957-7.29-17.317-8.415-5.006-19.884,1.29-20.5,10.926a11.593,11.593,0,0,0,1.414,6.709c1.25,2.7,2.283,5.742,1.358,8.707-1.552,4.979-8.134,7.589-7.265,13.492.469,3.18,3.407,5.542,6.519,6.346,8.589,2.219,16.906-2.149,21.515-9.408A25.428,25.428,0,0,0,131.838,172.48Z" fill="#231f20"/>
    <path d="M199.522,161.78a90.805,90.805,0,0,1,16.657-13.99c3-1.957,6.345-3.8,9.921-3.609,2.935.155,5.618,1.664,8.048,3.317,7.772,5.287,14.567,13.243,15.12,22.627.183,3.1-.482,6.517-2.85,8.534a8.569,8.569,0,0,1-7.7,1.388,18,18,0,0,1-6.951-4.092c-1.971-1.717-4.235-3.77-6.8-3.281a7.205,7.205,0,0,0-2.572,1.222,43.084,43.084,0,0,0-16.551,21.19" fill="#fff"/>
  </g>
</svg>
