<svg xmlns="http://www.w3.org/2000/svg" width="221.792" height="48.365" viewBox="0 0 221.792 48.365">
  <g id="Layer_2" data-name="Layer 2" transform="translate(0.01)">
    <g id="Layer_1" data-name="Layer 1" transform="translate(-0.01)">
      <ellipse id="Ellipse_1" data-name="Ellipse 1" cx="24.387" cy="23.632" rx="24.387" ry="23.632" transform="translate(0.444 0.874)" fill="#fff"/>
      <path id="Path_1" data-name="Path 1" d="M24.8,49.211C11.1,49.211-.01,38.44-.01,25.155S11.1,1.1,24.8,1.1,49.61,11.87,49.61,25.156C49.593,38.434,38.5,49.193,24.8,49.211Zm0-45.547c-12.242,0-22.166,9.622-22.166,21.492S12.56,46.647,24.8,46.647s22.166-9.622,22.166-21.492S37.038,3.677,24.8,3.663Z" transform="translate(0.01 -0.846)"/>
      <path id="Path_2" data-name="Path 2" d="M32.32,54.622A22.425,22.425,0,0,1,10.931,39.654a21.32,21.32,0,0,1,8.092-24.293,23.115,23.115,0,0,1,26.407-.1l.368.257-1.955,2.488-.352-.244a19.786,19.786,0,0,0-22.579.154A18.247,18.247,0,0,0,14.03,38.7,19.2,19.2,0,0,0,32.32,51.5,19.742,19.742,0,0,0,39,50.337l.419-.152,1.106,2.94-.414.148a23.012,23.012,0,0,1-7.793,1.35Z" transform="translate(-7.542 -8.586)"/>
      <path id="Path_3" data-name="Path 3" d="M56.916,42.78c-8.365,0-15.146,6.444-15.146,14.392s6.782,14.391,15.147,14.391,15.146-6.444,15.145-14.392S65.277,42.787,56.916,42.78ZM44.194,57.169c.013-6.671,5.7-12.076,12.722-12.088.231,0,.463,0,.673.018a23.931,23.931,0,0,0,0,3.347l.014.121h.127c6.042.391,7.434,4.765,7.448,4.809l.042.138,3.47-.976a11.537,11.537,0,0,1-1.006,11.1,24.049,24.049,0,0,0-2.672-1.248l-.106-.035-.058.094a7.415,7.415,0,0,1-6.37,3.848,4.529,4.529,0,0,1-.68-.044l-.136-.022-.544,3.029h-.2c-7.025-.007-12.72-5.415-12.731-12.09Z" transform="translate(-32.106 -32.885)" fill="#008fc1"/>
      <path id="Path_4" data-name="Path 4" d="M56.754,71.454c-8.394,0-15.2-6.472-15.194-14.449s6.8-14.442,15.2-14.445S71.96,49.025,71.963,57,65.151,71.449,56.754,71.454Zm0-28.786c-8.337,0-15.094,6.422-15.093,14.343s6.757,14.341,15.092,14.34,15.09-6.422,15.089-14.343S65.088,42.666,56.754,42.657Zm0,26.493c-7.063,0-12.789-5.44-12.789-12.153s5.726-12.154,12.789-12.154c.231,0,.449,0,.678.019h.056v.053a24.19,24.19,0,0,0,0,3.341v.075h.079c6.042.391,7.485,4.8,7.5,4.836l.028.088,3.458-.976.021.046a11.606,11.606,0,0,1-1,11.16l-.028.042-.049-.024a24.344,24.344,0,0,0-2.648-1.238l-.065-.02-.032.055a7.47,7.47,0,0,1-6.419,3.878,4.407,4.407,0,0,1-.694-.046l-.076-.013-.544,3.02h-.247Zm0-24.2c-7,0-12.676,5.393-12.676,12.046s5.675,12.046,12.676,12.046h.153l.546-3.038.192.031a4.39,4.39,0,0,0,.671.044,7.358,7.358,0,0,0,6.322-3.825l.081-.132.15.053a23.811,23.811,0,0,1,2.621,1.22,11.492,11.492,0,0,0,1-10.976l-3.47.98-.058-.191c-.014-.044-1.434-4.4-7.4-4.77h-.173l-.019-.165a25.982,25.982,0,0,1,0-3.3,4.961,4.961,0,0,0-.618-.033Z" transform="translate(-31.945 -32.716)"/>
      <path id="Path_5" data-name="Path 5" d="M94.807,90.378A5.369,5.369,0,1,1,89.439,85,5.369,5.369,0,0,1,94.807,90.378Z" transform="translate(-64.622 -66.097)" fill="#008fc1"/>
      <path id="Path_6" data-name="Path 6" d="M89.246,95.643a5.426,5.426,0,1,1,5.426-5.426A5.426,5.426,0,0,1,89.246,95.643Zm0-10.737a5.32,5.32,0,1,0,5.32,5.32A5.32,5.32,0,0,0,89.246,84.906Z" transform="translate(-64.43 -65.936)"/>
      <path id="Path_7" data-name="Path 7" d="M249.63,40.433a7.386,7.386,0,0,1,3.125,2.5,6.4,6.4,0,0,1-1.226,8.551,8.741,8.741,0,0,1-5.871,2,9.456,9.456,0,0,1-4.626-1.157,9.979,9.979,0,0,1-3.523-3.3l1.837-1.184a8.114,8.114,0,0,0,2.753,2.711,6.978,6.978,0,0,0,3.548.925,6.664,6.664,0,0,0,4.325-1.439,4.363,4.363,0,0,0,1.783-3.5,4.72,4.72,0,0,0-1.783-3.717,6.423,6.423,0,0,0-4.325-1.527,9.09,9.09,0,0,0-2.179.282,13.879,13.879,0,0,0-2.41.865l.865-2.276A6.939,6.939,0,0,1,239.4,37.8a5.984,5.984,0,0,1,1.244-7.7,7.713,7.713,0,0,1,5.251-1.85c.305,0,.648.012,1.025.035s.77.06,1.182.106c.095,0,.187.021.282.025s.231,0,.442,0a13.337,13.337,0,0,0,2.188-.2q1.217-.2,3.335-.731l-.463,1.388a1.545,1.545,0,0,1-.46.814,1.341,1.341,0,0,1-.8.2q-.3,0-1.619-.194l-.435-.06a6.025,6.025,0,0,1,2.251,2.128,5.552,5.552,0,0,1,.768,2.921,5.806,5.806,0,0,1-1.032,3.379,7.085,7.085,0,0,1-2.933,2.373Zm-9-5.753a4.3,4.3,0,0,0,1.564,3.361,6.205,6.205,0,0,0,7.765.009,4.3,4.3,0,0,0,1.543-3.37,4.036,4.036,0,0,0-1.571-3.194,5.766,5.766,0,0,0-3.849-1.325,5.864,5.864,0,0,0-3.865,1.316A4.017,4.017,0,0,0,240.63,34.681Z" transform="translate(-184.365 -21.124)"/>
      <path id="Path_8" data-name="Path 8" d="M333.628,46.866a7.762,7.762,0,0,1-2.6,2.482,6.622,6.622,0,0,1-3.285.819,5.991,5.991,0,0,1-4.668-1.825,7.37,7.37,0,0,1-1.668-5.128V31.687l2.029-.247V42.21a7.663,7.663,0,0,0,1.191,4.7,4.225,4.225,0,0,0,3.581,1.55,5.207,5.207,0,0,0,3.8-1.619,5.32,5.32,0,0,0,1.619-3.909V31.687l2.024-.247V49.69l-2.031.247Z" transform="translate(-249.463 -24.168)"/>
      <path id="Path_9" data-name="Path 9" d="M393.23,46.652l1.52-1.448a6.708,6.708,0,0,0,2.144,1.677,5.718,5.718,0,0,0,2.514.564,4,4,0,0,0,2.736-.925A3.081,3.081,0,0,0,403.2,44.1a2.775,2.775,0,0,0-.777-2.082,6.244,6.244,0,0,0-2.773-1.265,10.931,10.931,0,0,1-4.626-2,4.147,4.147,0,0,1-1.231-3.2,4.645,4.645,0,0,1,1.675-3.627,6.217,6.217,0,0,1,4.256-1.473,7.992,7.992,0,0,1,5.4,2.029l-1.272,1.661a8.158,8.158,0,0,0-2.082-1.342,5.191,5.191,0,0,0-2.082-.463,4.11,4.11,0,0,0-2.727.865,2.831,2.831,0,0,0-1.032,2.278q0,2.133,3.724,3.035.777.178,1.157.3a7.232,7.232,0,0,1,3.442,1.906,4.434,4.434,0,0,1,1.157,3.106,5.251,5.251,0,0,1-1.749,4.041,6.248,6.248,0,0,1-4.395,1.608,7.918,7.918,0,0,1-3.4-.715A7.33,7.33,0,0,1,393.23,46.652Z" transform="translate(-305.179 -23.405)"/>
      <path id="Path_10" data-name="Path 10" d="M460.664,32.241a9.281,9.281,0,0,1-1.015.185,7.089,7.089,0,0,1-.907.062,4.491,4.491,0,0,1-3.849-1.517q-1.129-1.517-1.129-5.551V16.2H451.15l.583-1.959h2.031V9.957l2.012-1.217v5.5h4.712V16.2h-4.712v9.46q0,2.912.678,3.865a2.738,2.738,0,0,0,2.392.953,6,6,0,0,0,.821-.06c.3-.042.634-.1,1-.169Z" transform="translate(-350.089 -6.718)"/>
      <path id="Path_11" data-name="Path 11" d="M507.627,47.106a6.581,6.581,0,0,1-2.19,1.677,6.2,6.2,0,0,1-2.646.564,6.621,6.621,0,1,1,2.63-12.7,6.493,6.493,0,0,1,2.207,1.561V35.934a3.632,3.632,0,0,0-.946-2.764,4.132,4.132,0,0,0-2.917-.891,10.554,10.554,0,0,0-2.526.335,21.109,21.109,0,0,0-3.106,1.078l.8-2.348a17.054,17.054,0,0,1,2.593-.694,13.852,13.852,0,0,1,2.454-.231A5.874,5.874,0,0,1,508.29,31.8a5.959,5.959,0,0,1,1.367,4.342V48.9l-2.029.442Zm-9.356-4.379a4.485,4.485,0,0,0,1.351,3.324,4.661,4.661,0,0,0,3.416,1.332,4.448,4.448,0,0,0,3.326-1.288,5.119,5.119,0,0,0,0-6.733,4.376,4.376,0,0,0-3.294-1.293,4.731,4.731,0,0,0-3.451,1.323A4.483,4.483,0,0,0,498.27,42.728Z" transform="translate(-385.091 -23.384)"/>
      <path id="Path_12" data-name="Path 12" d="M567.337,49.628l-8.667-18.2,2.031-.6,6.636,14.191,6.655-14.191,1.994.53Z" transform="translate(-433.675 -23.699)"/>
      <path id="Path_13" data-name="Path 13" d="M634.75,40.219a9.015,9.015,0,0,1,2.736-6.7,9.923,9.923,0,0,1,13.592,0A9.036,9.036,0,0,1,653.8,40.23a9.264,9.264,0,0,1-9.511,9.433,9.286,9.286,0,0,1-6.805-2.718A9.069,9.069,0,0,1,634.75,40.219Zm2.066,0a7.15,7.15,0,0,0,2.2,5.269,7.452,7.452,0,1,0-2.2-5.269Z" transform="translate(-492.773 -23.699)"/>
      <path id="Path_14" data-name="Path 14" d="M729.14,31.217l2.031-.247V34.8a9.8,9.8,0,0,1,3.31-2.956,8.623,8.623,0,0,1,4.138-1.015,9.272,9.272,0,0,1,6.789,2.692,9.048,9.048,0,0,1,2.725,6.708,9.12,9.12,0,0,1-2.725,6.736,9.23,9.23,0,0,1-6.789,2.709,8.712,8.712,0,0,1-4.226-1.032,9.18,9.18,0,0,1-3.222-2.993v9.946l-2.031.254Zm2.031,9a7.45,7.45,0,1,0,7.45-7.45,7.449,7.449,0,0,0-7.45,7.45Z" transform="translate(-566.049 -23.698)" fill="#008fc1"/>
      <path id="Path_15" data-name="Path 15" d="M822.47,1.85,823.98,0l1.554,1.658-1.554,1.85Zm.511,23.952V7.52l2.066-.247v18.25Z" transform="translate(-639.146)" fill="#008fc1"/>
      <path id="Path_16" data-name="Path 16" d="M852.744,32.241a9.383,9.383,0,0,1-1.015.185,7.152,7.152,0,0,1-.909.062,4.492,4.492,0,0,1-3.847-1.517q-1.131-1.517-1.131-5.551V16.2H843.23l.583-1.959h2.029V9.957l2.012-1.217v5.5h4.712V16.2h-4.712v9.46q0,2.912.68,3.865a2.742,2.742,0,0,0,2.392.953,6,6,0,0,0,.821-.06c.3-.042.631-.1,1-.169Z" transform="translate(-655.104 -6.718)" fill="#008fc1"/>
      <path id="Path_17" data-name="Path 17" d="M894.944,32.241a9.394,9.394,0,0,1-1.016.185,7.153,7.153,0,0,1-.909.062,4.5,4.5,0,0,1-3.849-1.517q-1.131-1.517-1.129-5.551V16.2H885.43l.581-1.959h2.031V9.957l2.012-1.217v5.5h4.712V16.2h-4.712v9.46q0,2.912.68,3.865a2.742,2.742,0,0,0,2.392.953,5.994,5.994,0,0,0,.821-.06c.3-.042.632-.1,1-.169Z" transform="translate(-687.543 -6.718)" fill="#008fc1"/>
      <path id="Path_18" data-name="Path 18" d="M941.934,47.106a6.574,6.574,0,0,1-2.188,1.677,6.2,6.2,0,0,1-2.646.564,6.621,6.621,0,1,1,2.623-12.7,6.462,6.462,0,0,1,2.211,1.566V35.934a3.637,3.637,0,0,0-.944-2.764,4.134,4.134,0,0,0-2.921-.891,10.549,10.549,0,0,0-2.523.335,21.015,21.015,0,0,0-3.106,1.078l.793-2.348a17.153,17.153,0,0,1,2.6-.694,13.833,13.833,0,0,1,2.454-.231A5.879,5.879,0,0,1,942.6,31.8a5.946,5.946,0,0,1,1.367,4.342V48.9l-2.031.449Zm-9.361-4.379a4.485,4.485,0,0,0,1.351,3.324,4.658,4.658,0,0,0,3.414,1.332,4.447,4.447,0,0,0,3.328-1.288,5.109,5.109,0,0,0,.007-6.729,4.383,4.383,0,0,0-3.292-1.3,4.721,4.721,0,0,0-3.451,1.323A4.482,4.482,0,0,0,932.573,42.728Z" transform="translate(-722.173 -23.384)" fill="#008fc1"/>
      <path id="Path_19" data-name="Path 19" d="M728.94,170.977l1.015-.969a4.517,4.517,0,0,0,1.434,1.122,3.828,3.828,0,0,0,1.684.377,2.669,2.669,0,0,0,1.83-.625,2.063,2.063,0,0,0,.708-1.619,1.851,1.851,0,0,0-.518-1.388,4.145,4.145,0,0,0-1.85-.84,7.271,7.271,0,0,1-3.095-1.339,2.8,2.8,0,0,1-.826-2.144,3.109,3.109,0,0,1,1.122-2.426,4.15,4.15,0,0,1,2.845-.985,5.334,5.334,0,0,1,3.608,1.353l-.849,1.11a5.434,5.434,0,0,0-1.388-.9,3.47,3.47,0,0,0-1.388-.308,2.745,2.745,0,0,0-1.825.578,1.889,1.889,0,0,0-.694,1.524q0,1.429,2.491,2.031c.347.079.606.146.779.2a4.934,4.934,0,0,1,2.313,1.274,2.965,2.965,0,0,1,.766,2.082,3.518,3.518,0,0,1-1.157,2.7A4.18,4.18,0,0,1,733,172.869a5.285,5.285,0,0,1-2.271-.479A4.879,4.879,0,0,1,728.94,170.977Z" transform="translate(-565.621 -124.606)"/>
      <path id="Path_20" data-name="Path 20" d="M774.048,161.327a6.766,6.766,0,0,1-.68.125,4.834,4.834,0,0,1-.608.042,3.005,3.005,0,0,1-2.574-1.015,6.572,6.572,0,0,1-.756-3.722v-6.164H767.68l.391-1.311h1.358v-2.857l1.349-.814v3.671h3.153v1.311h-3.153v6.331a4.868,4.868,0,0,0,.463,2.586,1.838,1.838,0,0,0,1.6.638,4.043,4.043,0,0,0,.548-.042c.2-.028.423-.065.668-.113Z" transform="translate(-595.636 -113.439)"/>
      <path id="Path_21" data-name="Path 21" d="M808.684,171.091a5.22,5.22,0,0,1-1.737,1.661,4.418,4.418,0,0,1-2.2.548,4.017,4.017,0,0,1-3.125-1.221,4.915,4.915,0,0,1-1.117-3.433v-7.712l1.36-.164v7.205a5.139,5.139,0,0,0,.8,3.141,2.821,2.821,0,0,0,2.392,1.041,3.49,3.49,0,0,0,2.544-1.08,3.571,3.571,0,0,0,1.082-2.621v-7.522l1.358-.164v12.211l-1.358.167Z" transform="translate(-622.266 -125.092)"/>
      <path id="Path_22" data-name="Path 22" d="M861.181,154.48a6.643,6.643,0,0,1-2.218,1.985,5.767,5.767,0,0,1-2.776.694,6.22,6.22,0,0,1-4.554-1.823,6.421,6.421,0,0,1,0-8.982,6.245,6.245,0,0,1,4.557-1.8,5.868,5.868,0,0,1,2.829.694,6.082,6.082,0,0,1,2.163,1.994v-7.286l1.323-.164v17.075l-1.323.167Zm-9.99-3.65a4.77,4.77,0,0,0,1.471,3.525,4.982,4.982,0,1,0,0-7.05,4.779,4.779,0,0,0-1.483,3.525Z" transform="translate(-660.156 -108.965)"/>
      <path id="Path_23" data-name="Path 23" d="M914.62,140.977l1.018-1.237,1.039,1.108-1.043,1.242ZM914.965,157V144.769l1.388-.164v12.211Z" transform="translate(-709.982 -108.926)"/>
      <path id="Path_24" data-name="Path 24" d="M930.994,166.643a6.03,6.03,0,0,1,1.832-4.48,6.643,6.643,0,0,1,9.1,0,6.444,6.444,0,0,1,0,8.986,6.6,6.6,0,0,1-9.079,0A6.086,6.086,0,0,1,930.994,166.643Zm1.388,0a4.776,4.776,0,0,0,1.469,3.525,4.982,4.982,0,1,0,0-7.05A4.784,4.784,0,0,0,932.382,166.643Z" transform="translate(-722.566 -124.778)"/>
    </g>
  </g>
</svg>
