<svg xmlns="http://www.w3.org/2000/svg" viewBox="0 0 387.37 157.21"><defs><style>.cls-1{fill:#ffb71b;}.cls-2{fill:#522d6d;}</style></defs><title>logo-vee-amarelo-roxo</title><g id="Layer_2" data-name="Layer 2"><g id="Layer_1-2" data-name="Layer 1"><polygon class="cls-1" points="174.12 68.89 182.88 49.27 151.11 49.27 171.89 0 145.93 0 92.86 129.36 41.6 0 14.1 0 34.88 49.27 0 49.27 8.76 68.89 43.15 68.89 51.34 88.31 17.16 88.31 25.92 107.94 59.62 107.94 80.4 157.21 105.58 157.21 126.36 107.94 159.15 107.94 167.91 88.31 134.64 88.31 142.83 68.89 174.12 68.89"/><path class="cls-2" d="M294.06,100.7s-11.48,2.43-20.38-8.57l45.68-22.72s-8.45-23.32-32.79-19.77c-8,1-25.43,9.62-24.38,31.39.09,6.11,6.29,24.84,26.78,26.79a29.34,29.34,0,0,0,31.86-28.11L313,83.51S310,98.67,294.06,100.7ZM270,84.31c-4.25-19.41,12.88-26.16,12.88-26.16C298.78,51.61,309,65,309,65Z"/><path class="cls-2" d="M379.53,83.51s-3,15.16-18.93,17.19c0,0-11.48,2.43-20.38-8.57L385.9,69.41s-8.45-23.32-32.79-19.77c-8,1-25.43,9.62-24.39,31.39.09,6.11,6.29,24.84,26.79,26.79a29.34,29.34,0,0,0,31.86-28.11Zm-42.95.8c-4.25-19.41,12.88-26.16,12.88-26.16,15.86-6.54,26.1,6.86,26.1,6.86Z"/><polygon class="cls-2" points="231.08 95.09 213.76 49.27 204.19 49.27 225.95 107.94 236.45 107.94 259.02 49.27 249.45 49.27 231.08 95.09"/></g></g></svg>