<svg xmlns="http://www.w3.org/2000/svg" width="582.137" height="582.137" viewBox="0 0 582.137 582.137">
  <title>logo-jupiter</title>
  <g>
    <path d="M470.6,104.305A258.222,258.222,0,0,0,291.068,32C147.989,32,32,147.989,32,291.069A259.006,259.006,0,0,0,291.068,550.137c143.08,0,259.069-115.989,259.069-259.068A258.3,258.3,0,0,0,470.6,104.305Z" fill="#00a7d0"/>
    <path d="M291.068,13A278.1,278.1,0,0,1,569.137,291.069c0,153.573-124.5,278.068-278.069,278.068A277.941,277.941,0,0,1,13,291.069C13,137.5,137.5,13,291.068,13m0-13a291.069,291.069,0,1,0,0,582.137A291.143,291.143,0,0,0,403.747,22.624,289.3,289.3,0,0,0,291.068,0Z" fill="#fab725"/>
    <g>
      <path d="M145.151,293.19c0,12.367-.485,14.793-3.273,18.8a18.126,18.126,0,0,1-10.063,6.91c-2.546.727-8,1.092-15.4,1.092-13.338,0-18.31-1.334-22.432-5.821-3.758-4.365-4.849-9.579-4.849-23.157,0-1.819,0-3.033.122-5.457h20.127v5.819c0,8.852.847,10.064,7.032,10.064,3.516,0,5.212-.728,6.184-2.424.727-1.577.727-1.577.847-8.125V238.509h21.7Z" fill="#fff"/>
      <path d="M211.468,319.38H193.04l.97-11.64h-.365c-2.666,8.487-7.88,12.247-17.581,12.247-8.122,0-13.943-2.79-16.731-8.125-1.454-2.668-2.061-5.7-2.061-10.79V262.758H175.7v32.373c.12,6.061.12,6.061.727,7.275,1.092,2.061,3.4,3.151,6.91,3.151,4,0,7.155-1.575,8.61-4.365.969-1.7,1.091-2.666,1.091-8.849V262.758h18.428Z" fill="#fff"/>
      <path d="M242.261,262.758l-.727,9.456h.363c4.365-8.245,7.64-10.063,18.065-10.063,6.913,0,11.883,1.456,15.158,4.364,4.729,4.123,6.183,9.7,6.183,23.16,0,14.55-1.454,20.733-5.821,25.46-3.273,3.518-7.88,4.852-16,4.852-9.821,0-14.064-2.668-16.247-10.186h-.365v33.828H223.831V262.758Zm.605,26.917c0,13.458,1.7,16.124,10.186,16.124,7.882,0,9.7-2.666,9.7-14.306,0-13.216-1.456-15.641-9.943-15.641C244.685,275.852,242.866,278.277,242.866,289.675Z" fill="#fff"/>
      <path d="M309.548,319.38h-18.43V262.758h18.43Z" fill="#fff"/>
      <path d="M363.983,276.094h-21.46v22.917c0,6.061.727,7.517,4.122,7.517,4.244,0,5.092-1.7,5.092-10.428h14.792l-.12,2.3c0,8.609-.242,10.185-1.334,12.974-2.668,6.426-7.882,8.609-21.341,8.609-9.7,0-14.67-1.941-17.7-6.791-1.456-2.425-1.94-4.849-1.94-10.548V276.094h-6.911V262.758h6.911V250.875h18.43v11.883h21.46Z" fill="#fff"/>
      <path d="M427.028,300.465v1.092c0,4.849-1.092,8.971-3.273,11.882-3.4,4.729-9.459,6.548-21.341,6.548-13.216,0-19.884-1.7-24.371-5.941-4.122-4.123-5.456-10.186-5.456-24.371,0-12.247,1.576-18.188,5.941-22.068,4.244-3.88,10.55-5.456,21.7-5.456,20.731,0,26.8,6.063,26.8,26.8v5.335H390.774a19.308,19.308,0,0,0-.12,2.3c0,8.125,2.181,10.548,9.7,10.548,6.668,0,8.609-1.454,8.609-6.668Zm-17.7-16.369a12.887,12.887,0,0,1-.121-1.819c0-2.908-.242-3.635-.969-4.727-1.334-1.819-3.153-2.3-8.609-2.3-5.092,0-6.911.727-8,3.15-.485,1.214-.607,1.457-.728,5.7Z" fill="#fff"/>
      <path d="M455.273,262.758l-.849,9.093h.364c3.273-7.155,6.911-9.7,14.306-9.7,7.517,0,11.882,3.032,13.581,9.458.849,2.908.849,3.151,1.091,15.882H466.913a14.426,14.426,0,0,0,.12-1.939c0-7.517-.97-9.336-4.97-9.336a6.363,6.363,0,0,0-6.305,4.487c-.485,1.454-.485,2.061-.485,5.941V319.38h-18.43V262.758Z" fill="#fff"/>
      <circle cx="300.471" cy="244.785" r="9.215" fill="#fff"/>
    </g>
    <path d="M470.6,104.305a259.362,259.362,0,0,0-79.241-52.172q-3.135-1.317-6.313-2.549C253.215,37.053,146.948,77.434,104.971,139c-15,22,17,15,73,8,25.634-3.2,12.118,60.051,65,16,27.25-22.7,23.775-34.276,71-56,50-23,112,52,141,72,32.781,22.608,60.9,29.884,82.762,32.668A259.145,259.145,0,0,0,470.6,104.305Z" fill="#fab725"/>
    <path d="M260.605,464.461c50.445,18.16,72.64,76.676,86.765,46.409s34.3-28.249,84.747-34.3,20.178-54.48-131.156-84.747c-119.937-23.988-191.691-7.414-242.427,13.551a260.194,260.194,0,0,0,101.1,108.975C177.568,493.107,213.887,447.642,260.605,464.461Z" fill="#fab725"/>
  </g>
</svg>
