<?xml version="1.0" encoding="utf-8"?>
<!-- Generator: Adobe Illustrator 24.0.1, SVG Export Plug-In . SVG Version: 6.00 Build 0)  -->
<svg version="1.1" id="Layer_1" xmlns="http://www.w3.org/2000/svg" xmlns:xlink="http://www.w3.org/1999/xlink" x="0px" y="0px"
	 viewBox="0 0 19.3 30.8" style="enable-background:new 0 0 19.3 30.8;" xml:space="preserve">
<style type="text/css">
	.st0{fill:#FFFFFF;}
</style>
<path id="Icon_metro-location" class="st0" d="M9.6,0C4.3,0,0,4.3,0,9.6c0,0,0,0,0,0c0,9.6,9.6,21.2,9.6,21.2s9.6-11.6,9.6-21.2
	C19.3,4.3,15,0,9.6,0z M9.6,15.5c-3.3,0-5.9-2.6-5.9-5.9s2.6-5.9,5.9-5.9s5.9,2.6,5.9,5.9v0C15.5,12.9,12.9,15.5,9.6,15.5z M5.9,9.6
	c0-2.1,1.7-3.7,3.7-3.7c2.1,0,3.7,1.7,3.7,3.7s-1.7,3.7-3.7,3.7c0,0,0,0,0,0C7.6,13.4,5.9,11.7,5.9,9.6L5.9,9.6z"/>
</svg>
