<svg xmlns="http://www.w3.org/2000/svg" viewBox="0 0 50 32.91"><defs><style>.cls-1{fill:#fff;}</style></defs><title>icon-clients</title><g id="Layer_2" data-name="Layer 2"><g id="Layer_1-2" data-name="Layer 1"><path class="cls-1" d="M38.57,26.9h0a10.9,10.9,0,0,1-.29,2.82s-4.93,3.2-13.18,3.2v-.19l0,.19c-8.25,0-13.18-3.2-13.18-3.2a10.9,10.9,0,0,1-.29-2.82c-.1-1.44,0-4.35,2.54-5a39,39,0,0,0,6.19-2.17A5.62,5.62,0,0,0,21,17.37a7.21,7.21,0,0,1-1.73-3.77.35.35,0,0,1-.24.08c-.31,0-.74-.47-1.2-2.23-.58-2.22,0-2.66.49-2.65a.47.47,0,0,1,.24,0V8.78S17,3.59,20.76,1.31a1.68,1.68,0,0,1-.6-1.3,33.36,33.36,0,0,0,3.36.2,11,11,0,0,0,2-.15A2.54,2.54,0,0,1,26.21,0a3.62,3.62,0,0,1,3.28,2.4h.06c.49,0,3.56.23,2.09,6.4v0l.23,0c.52,0,1.07.42.49,2.65-.46,1.78-.89,2.23-1.21,2.23a.42.42,0,0,1-.28-.12,7.19,7.19,0,0,1-1.74,3.81h.06a6.2,6.2,0,0,0,.56,2.22A34.63,34.63,0,0,0,36,21.9C38.55,22.54,38.67,25.46,38.57,26.9Zm-28.7,0a8.88,8.88,0,0,1,.38-3.4,5.31,5.31,0,0,1,1.16-2,4.77,4.77,0,0,1,2.32-1.34c1.13-.29,2.19-.63,3.1-.95l-.32-.09A22.47,22.47,0,0,1,13.13,18l-.4-.27v-.16h0v-1s3.08.09,4.55-1.4c0,0-2.13-.6-1.75-4.48s-.48-7.28-3.59-7c0,0-1.35-1.62-4-.6C7,3.44,4.5,4.33,4.63,9.7s-1.91,5.4-1.91,5.4,1,1.52,4.61,1.49v1.09s-.15.12-.4.28a22.06,22.06,0,0,1-3.38,1.19,12.75,12.75,0,0,0-2.11.8A2.53,2.53,0,0,0,0,22v2.26c2.08,2.38,8.47,2.82,9.87,2.88Zm38.69-7a11,11,0,0,0-2.11-.79A23.71,23.71,0,0,1,43.07,18l-.4-.27v-.16h0v-1s3.08.09,4.54-1.4c0,0-2.13-.6-1.74-4.48s-.48-7.28-3.59-7c0,0-1.35-1.62-4-.6-.92.35-3.4,1.24-3.27,6.61s-1.91,5.4-1.91,5.4,1.05,1.52,4.61,1.49v1.09l-.4.28a21.69,21.69,0,0,1-3.39,1.19l-.17.05a29.39,29.39,0,0,0,3.15,1,4.78,4.78,0,0,1,2.31,1.35,5.2,5.2,0,0,1,1.17,2,9.15,9.15,0,0,1,.39,3.26v.34c1.35-.07,7.59-.49,9.67-2.87V22A2.54,2.54,0,0,0,48.56,20Z"/></g></g></svg>