<?xml version="1.0" encoding="utf-8"?>
<!-- Generator: Adobe Illustrator 24.0.1, SVG Export Plug-In . SVG Version: 6.00 Build 0)  -->
<svg version="1.1" id="Layer_1" xmlns="http://www.w3.org/2000/svg" xmlns:xlink="http://www.w3.org/1999/xlink" x="0px" y="0px"
	 viewBox="0 0 31.5 31.5" style="enable-background:new 0 0 31.5 31.5;" xml:space="preserve">
<style type="text/css">
	.st0{fill:#FFFFFF;}
</style>
<path id="Icon_awesome-whatsapp" class="st0" d="M26.8,4.6c-6.1-6.1-16-6.1-22.1,0c-5,5-6,12.7-2.5,18.8L0,31.5l8.3-2.2
	c2.3,1.2,4.9,1.9,7.5,1.9h0c8.6,0,15.7-7,15.8-15.6C31.5,11.5,29.8,7.5,26.8,4.6z M15.7,28.6c-2.3,0-4.6-0.6-6.6-1.8l-0.5-0.3
	l-4.9,1.3L5.1,23l-0.3-0.5C1,16.4,3,8.4,9.1,4.7S23.2,2.9,27,9c1.2,2,1.9,4.3,1.9,6.6C28.8,22.8,22.9,28.6,15.7,28.6L15.7,28.6z
	 M22.9,18.9c-0.4-0.2-2.3-1.1-2.7-1.3s-0.6-0.2-0.9,0.2s-1,1.3-1.2,1.5s-0.5,0.3-0.8,0.1c-2.2-0.9-4.1-2.5-5.3-4.6
	c-0.4-0.7,0.4-0.6,1.1-2.1c0.1-0.2,0.1-0.5,0-0.7c-0.1-0.2-0.9-2.1-1.2-2.9c-0.3-0.8-0.6-0.7-0.9-0.7s-0.5,0-0.7,0
	c-0.4,0-0.8,0.2-1,0.5c-0.9,0.8-1.4,2-1.4,3.3c0.1,1.5,0.7,2.9,1.6,4c0.2,0.3,2.7,4.2,6.7,5.9c2.5,1.1,3.4,1.2,4.7,1
	c1.1-0.2,2.1-0.9,2.6-1.9c0.3-0.6,0.3-1.2,0.2-1.9C23.5,19.2,23.2,19.1,22.9,18.9z"/>
</svg>
